<svg width="65" height="65" viewBox="0 0 65 65" fill="none" xmlns="http://www.w3.org/2000/svg">
<circle cx="32.5" cy="32.5" r="32.5" fill="white"/>
<g clip-path="url(#clip0_1_2020)">
<path d="M38.7424 17.625H26.2541C25.0504 17.625 24.0703 18.6051 24.0703 19.8088V45.1864C24.0703 46.3906 25.0504 47.3708 26.2541 47.3708H38.7419C39.9461 47.3708 40.9262 46.3906 40.9262 45.1869V19.8088C40.9262 18.6051 39.9461 17.625 38.7424 17.625ZM25.0618 21.5911H39.9347V40.4301H25.0618V21.5911ZM26.2541 18.6165H38.7419C39.3998 18.6165 39.9347 19.1515 39.9347 19.8088V20.5996H25.0618V19.8088C25.0618 19.1515 25.5968 18.6165 26.2541 18.6165ZM38.7424 46.3792H26.2541C25.5968 46.3792 25.0618 45.8443 25.0618 45.1869V41.4216H39.9347V45.1869C39.9347 45.8443 39.3998 46.3792 38.7424 46.3792Z" fill="#DC7000"/>
<path d="M32.4987 41.9141C31.405 41.9141 30.5156 42.8035 30.5156 43.8971C30.5156 44.9908 31.405 45.8802 32.4987 45.8802C33.5923 45.8802 34.4817 44.9908 34.4817 43.8971C34.4817 42.8035 33.5923 41.9141 32.4987 41.9141ZM32.4987 44.8886C31.9518 44.8886 31.5072 44.4439 31.5072 43.8971C31.5072 43.3503 31.9518 42.9056 32.4987 42.9056C33.0455 42.9056 33.4902 43.3503 33.4902 43.8971C33.4902 44.4439 33.0455 44.8886 32.4987 44.8886Z" fill="#DC7000"/>
<path d="M30.5114 20.1009H32.4944C32.7686 20.1009 32.9902 19.8793 32.9902 19.6051C32.9902 19.331 32.7686 19.1094 32.4944 19.1094H30.5114C30.2372 19.1094 30.0156 19.331 30.0156 19.6051C30.0156 19.8793 30.2372 20.1009 30.5114 20.1009Z" fill="#DC7000"/>
<path d="M33.9879 20.1009H34.4837C34.7579 20.1009 34.9795 19.8793 34.9795 19.6051C34.9795 19.331 34.7579 19.1094 34.4837 19.1094H33.9879C33.7138 19.1094 33.4922 19.331 33.4922 19.6051C33.4922 19.8793 33.7138 20.1009 33.9879 20.1009Z" fill="#DC7000"/>
<path d="M45.6901 19.8876C45.4963 19.6937 45.183 19.6937 44.9891 19.8876C44.7953 20.0814 44.7953 20.3947 44.9891 20.5886C46.8413 22.4407 46.8413 25.4545 44.9891 27.3072C44.7953 27.501 44.7953 27.8143 44.9891 28.0082C45.0858 28.1048 45.2127 28.1534 45.3396 28.1534C45.4666 28.1534 45.5935 28.1048 45.6901 28.0082C47.929 25.7698 47.929 22.1264 45.6901 19.8876Z" fill="#DC7000"/>
<path d="M43.6042 21.0204C43.4104 20.8265 43.097 20.8265 42.9032 21.0204C42.7094 21.2142 42.7094 21.5275 42.9032 21.7214C43.5165 22.3346 43.8541 23.1517 43.8541 24.0212C43.8541 24.8908 43.5165 25.7073 42.9032 26.3206C42.7094 26.5144 42.7094 26.8277 42.9032 27.0216C42.9999 27.1183 43.1268 27.1668 43.2537 27.1668C43.3806 27.1668 43.5075 27.1183 43.6042 27.0216C44.4049 26.2214 44.8456 25.1555 44.8456 24.0212C44.8456 22.8869 44.4054 21.8205 43.6042 21.0204Z" fill="#DC7000"/>
<path d="M20.0052 20.5886C20.199 20.3947 20.199 20.0814 20.0052 19.8876C19.8113 19.6937 19.498 19.6937 19.3041 19.8876C17.0653 22.1264 17.0653 25.7693 19.3041 28.0082C19.4008 28.1048 19.5277 28.1534 19.6547 28.1534C19.7816 28.1534 19.9085 28.1048 20.0052 28.0082C20.199 27.8143 20.199 27.501 20.0052 27.3072C18.1525 25.455 18.1525 22.4412 20.0052 20.5886Z" fill="#DC7000"/>
<path d="M22.0908 20.8798C21.897 20.6859 21.5837 20.6859 21.3898 20.8798C20.5892 21.6799 20.1484 22.7458 20.1484 23.8801C20.1484 25.0144 20.5892 26.0803 21.3898 26.881C21.4865 26.9776 21.6134 27.0262 21.7403 27.0262C21.8672 27.0262 21.9942 26.9776 22.0908 26.881C22.2847 26.6871 22.2847 26.3738 22.0908 26.18C21.4776 25.5667 21.14 24.7497 21.14 23.8801C21.14 23.0105 21.4771 22.194 22.0908 21.5808C22.2842 21.3874 22.2842 21.0736 22.0908 20.8798Z" fill="#DC7000"/>
</g>
<defs>
<clipPath id="clip0_1_2020">
<rect width="29.7458" height="29.7458" fill="white" transform="translate(17.625 17.625)"/>
</clipPath>
</defs>
</svg>
