<svg width="65" height="65" viewBox="0 0 65 65" fill="none" xmlns="http://www.w3.org/2000/svg">
<circle cx="32.5" cy="32.5" r="32.5" fill="white"/>
<g clip-path="url(#clip0_1_2052)">
<path d="M21.404 27.2422H13.2188V29.5661H21.404C22.0447 29.5661 22.566 30.0873 22.566 30.728C22.566 31.3687 22.0447 31.89 21.404 31.89H16.7046C14.7825 31.89 13.2188 33.4537 13.2188 35.3758V38.8616H15.5426V35.3758C15.5426 34.7351 16.0639 34.2139 16.7046 34.2139H21.404C23.3261 34.2139 24.8899 32.6501 24.8899 30.728C24.8899 28.8059 23.3261 27.2422 21.404 27.2422Z" fill="#DC7000"/>
<path d="M33.6289 27.2422C31.7068 27.2422 30.143 28.8059 30.143 30.728V35.3758C30.143 36.0165 29.6218 36.5377 28.9811 36.5377H23.7266V38.8616H28.9811C30.9032 38.8616 32.4669 37.2979 32.4669 35.3758V30.728C32.4669 30.0873 32.9882 29.5661 33.6289 29.5661H38.8834V27.2422H33.6289Z" fill="#DC7000"/>
<path d="M50.5536 34.2137V29.5661C50.5536 28.2847 49.5111 27.2422 48.2297 27.2422C47.7896 27.2422 47.3608 27.3661 46.9896 27.6005L39.6307 32.2483C38.952 32.6769 38.5469 33.4116 38.5469 34.2139C38.5469 35.4952 39.5894 36.5377 40.8708 36.5377H48.2297V38.8616H50.5536V36.5377H52.8775V34.2139L50.5536 34.2137ZM48.2297 34.2136L40.8716 34.2132L48.2297 29.5661V34.2136Z" fill="#DC7000"/>
</g>
<defs>
<clipPath id="clip0_1_2052">
<rect width="39.661" height="39.661" fill="white" transform="translate(13.2188 13.2188)"/>
</clipPath>
</defs>
</svg>
