<svg width="65" height="65" viewBox="0 0 65 65" fill="none" xmlns="http://www.w3.org/2000/svg">
<circle cx="32.5" cy="32.5" r="32.5" fill="white"/>
<g clip-path="url(#clip0_1_2032)">
<path d="M19.184 29.3065C19.3255 29.3073 19.4616 29.2517 19.5621 29.152L21.692 27.0221C21.9008 26.8133 21.9008 26.4748 21.692 26.266C21.4832 26.0572 21.1447 26.0572 20.9359 26.266L18.8059 28.3959C18.7051 28.4959 18.6484 28.632 18.6484 28.774C18.6484 28.916 18.7051 29.0521 18.8059 29.152C18.9064 29.2517 19.0425 29.3073 19.184 29.3065Z" fill="#DC7000"/>
<path d="M19.184 32.5014C19.3255 32.5022 19.4616 32.4466 19.5621 32.347L24.8869 27.0221C25.0957 26.8133 25.0957 26.4748 24.8869 26.266C24.6781 26.0572 24.3396 26.0572 24.1308 26.266L18.8059 31.5908C18.7051 31.6908 18.6484 31.8269 18.6484 31.9689C18.6484 32.1109 18.7051 32.247 18.8059 32.347C18.9064 32.4466 19.0425 32.5022 19.184 32.5014Z" fill="#DC7000"/>
<path d="M46.8751 16.5234H33.0305C32.1482 16.5234 31.433 17.2386 31.433 18.1209V23.9782H19.1859C17.7154 23.9782 16.5234 25.1702 16.5234 26.6407V40.4853C16.5234 41.9557 17.7154 43.1477 19.1859 43.1477H25.0432V45.2777H23.4458C22.5635 45.2777 21.8483 45.9929 21.8483 46.8751C21.8483 47.7574 22.5635 48.4726 23.4458 48.4726H46.8751C47.7574 48.4726 48.4726 47.7574 48.4726 46.8751V18.1209C48.4726 17.2386 47.7574 16.5234 46.8751 16.5234ZM19.1859 25.0432H38.3554C39.2376 25.0432 39.9528 25.7584 39.9528 26.6407V39.4203H17.5884V26.6407C17.5884 25.7584 18.3036 25.0432 19.1859 25.0432ZM17.5884 40.4853H39.9528C39.9528 41.3676 39.2376 42.0828 38.3554 42.0828H19.1859C18.3036 42.0828 17.5884 41.3676 17.5884 40.4853ZM26.1082 43.1477H31.433V45.2777H26.1082V43.1477ZM33.0305 47.4076H23.4458C23.1517 47.4076 22.9133 47.1692 22.9133 46.8751C22.9133 46.581 23.1517 46.3426 23.4458 46.3426H34.0955C34.3896 46.3426 34.628 46.581 34.628 46.8751C34.628 47.1692 34.3896 47.4076 34.0955 47.4076H33.0305ZM47.4076 46.8751C47.4076 47.1692 47.1692 47.4076 46.8751 47.4076H35.5971C35.7697 46.9194 35.695 46.3779 35.3966 45.9547C35.0982 45.5315 34.6133 45.2791 34.0955 45.2777H32.498V43.1477H38.3554C39.8258 43.1477 41.0178 41.9557 41.0178 40.4853V26.6407C41.0178 25.1702 39.8258 23.9782 38.3554 23.9782H32.498V18.1209C32.498 17.8268 32.7364 17.5884 33.0305 17.5884H46.8751C47.1692 17.5884 47.4076 17.8268 47.4076 18.1209V46.8751Z" fill="#DC7000"/>
<path d="M45.2772 19.1875H34.6275C34.0393 19.1875 33.5625 19.6643 33.5625 20.2525V21.3174C33.5625 21.9056 34.0393 22.3824 34.6275 22.3824H45.2772C45.8654 22.3824 46.3422 21.9056 46.3422 21.3174V20.2525C46.3422 19.6643 45.8654 19.1875 45.2772 19.1875ZM34.6275 21.3174V20.2525H45.2772V21.3174H34.6275Z" fill="#DC7000"/>
<path d="M44.2146 27.1715C45.0969 27.1715 45.8121 26.4563 45.8121 25.574C45.8121 24.6918 45.0969 23.9766 44.2146 23.9766C43.3324 23.9766 42.6172 24.6918 42.6172 25.574C42.6172 26.4563 43.3324 27.1715 44.2146 27.1715ZM44.2146 25.0415C44.5087 25.0415 44.7471 25.2799 44.7471 25.574C44.7471 25.8681 44.5087 26.1065 44.2146 26.1065C43.9206 26.1065 43.6822 25.8681 43.6822 25.574C43.6822 25.2799 43.9206 25.0415 44.2146 25.0415Z" fill="#DC7000"/>
<path d="M45.8121 29.8318C45.8121 28.9496 45.0969 28.2344 44.2146 28.2344C43.3324 28.2344 42.6172 28.9496 42.6172 29.8318C42.6172 30.7141 43.3324 31.4293 44.2146 31.4293C45.0969 31.4293 45.8121 30.7141 45.8121 29.8318ZM44.2146 30.3643C43.9206 30.3643 43.6822 30.1259 43.6822 29.8318C43.6822 29.5377 43.9206 29.2993 44.2146 29.2993C44.5087 29.2993 44.7471 29.5377 44.7471 29.8318C44.7471 30.1259 44.5087 30.3643 44.2146 30.3643Z" fill="#DC7000"/>
<path d="M37.2903 44.2109C36.9962 44.2109 36.7578 44.4493 36.7578 44.7434V45.8084C36.7578 46.1025 36.9962 46.3409 37.2903 46.3409C37.5844 46.3409 37.8228 46.1025 37.8228 45.8084V44.7434C37.8228 44.4493 37.5844 44.2109 37.2903 44.2109Z" fill="#DC7000"/>
<path d="M39.4231 44.2109C39.129 44.2109 38.8906 44.4493 38.8906 44.7434V45.8084C38.8906 46.1025 39.129 46.3409 39.4231 46.3409C39.7172 46.3409 39.9556 46.1025 39.9556 45.8084V44.7434C39.9556 44.4493 39.7172 44.2109 39.4231 44.2109Z" fill="#DC7000"/>
<path d="M41.5481 44.2109C41.254 44.2109 41.0156 44.4493 41.0156 44.7434V45.8084C41.0156 46.1025 41.254 46.3409 41.5481 46.3409C41.8422 46.3409 42.0806 46.1025 42.0806 45.8084V44.7434C42.0806 44.4493 41.8422 44.2109 41.5481 44.2109Z" fill="#DC7000"/>
<path d="M43.6809 44.2109C43.3868 44.2109 43.1484 44.4493 43.1484 44.7434V45.8084C43.1484 46.1025 43.3868 46.3409 43.6809 46.3409C43.975 46.3409 44.2134 46.1025 44.2134 45.8084V44.7434C44.2134 44.4493 43.975 44.2109 43.6809 44.2109Z" fill="#DC7000"/>
<path d="M45.8137 44.2109C45.5197 44.2109 45.2812 44.4493 45.2812 44.7434V45.8084C45.2812 46.1025 45.5197 46.3409 45.8137 46.3409C46.1078 46.3409 46.3462 46.1025 46.3462 45.8084V44.7434C46.3462 44.4493 46.1078 44.2109 45.8137 44.2109Z" fill="#DC7000"/>
</g>
<defs>
<clipPath id="clip0_1_2032">
<rect width="31.9492" height="31.9492" fill="white" transform="translate(16.5234 16.5234)"/>
</clipPath>
</defs>
</svg>
