<svg width="65" height="65" viewBox="0 0 65 65" fill="none" xmlns="http://www.w3.org/2000/svg">
<circle cx="32.5" cy="32.5" r="32.5" fill="white"/>
<g clip-path="url(#clip0_1_2064)">
<path d="M34.5666 40.9062C32.8806 41.4688 31.0208 41.4686 29.33 40.9059C28.8562 40.7482 28.3447 41.0044 28.1871 41.478C28.0295 41.9515 28.2856 42.4633 28.7592 42.6209C29.7889 42.9636 30.8698 43.1349 31.9504 43.1349C33.0311 43.1349 34.1115 42.9634 35.1387 42.6207C35.6121 42.4627 35.8679 41.9508 35.7099 41.4773C35.5519 41.0039 35.0401 40.7483 34.5666 40.9062Z" fill="#DC7000"/>
<path d="M42.4763 23.5293C42.0917 20.7705 39.7227 18.593 36.7887 18.593H35.7564V18.5287C35.7564 18.0296 35.3517 17.625 34.8526 17.625H29.0446C28.5455 17.625 28.1409 18.0296 28.1409 18.5287V18.593H27.1086C24.1992 18.593 21.827 20.7401 21.4236 23.5287C19.7295 23.9142 18.4609 25.4316 18.4609 27.2407V34.9847C18.4609 37.4613 20.4783 38.4707 21.3946 38.6885C21.8084 44.2638 26.4899 48.4725 31.9486 48.4725C37.5154 48.4725 42.092 44.1523 42.5023 38.6887C44.8775 38.1248 45.4363 35.9698 45.4363 34.9848V27.2407C45.4364 25.4325 44.169 23.9158 42.4763 23.5293ZM35.7564 20.4004H36.7886C39.3457 20.4004 40.402 22.4911 40.6216 23.433H35.7564V20.4004ZM29.9484 19.4325H33.9489V23.433H29.9484V19.4325ZM27.1086 20.4004H28.1409V23.433H23.2793C23.8655 20.9775 26.09 20.4004 27.1086 20.4004ZM31.9486 46.665C27.4881 46.665 23.6752 43.2859 23.2183 38.7924H27.6749C28.7839 38.7924 29.869 38.343 30.6519 37.5595C30.6566 37.5549 30.6612 37.5502 30.6657 37.5454C31.0057 37.2128 31.4722 37.0225 31.9486 37.0225C32.4252 37.0225 32.8916 37.2129 33.2316 37.5455C33.2361 37.5502 33.2407 37.5549 33.2454 37.5595C34.0283 38.343 35.1134 38.7924 36.2224 38.7924H40.6786C40.2248 43.2087 36.4828 46.665 31.9486 46.665ZM43.6289 34.9848C43.6289 36.1032 42.7173 36.985 41.6286 36.985H36.2224C35.5963 36.985 34.9838 36.7343 34.5386 36.2964C34.5337 36.2913 34.5288 36.2863 34.5238 36.2812C33.8462 35.6036 32.9077 35.215 31.9487 35.215C30.9898 35.215 30.0512 35.6036 29.3736 36.2812C29.3686 36.2862 29.3636 36.2913 29.3588 36.2964C28.9135 36.7343 28.301 36.985 27.6749 36.985H22.2686C21.1834 36.985 20.2683 36.107 20.2683 34.9848V27.2407C20.2683 26.1378 21.1657 25.2405 22.2686 25.2405H41.6286C42.7316 25.2405 43.6288 26.1379 43.6288 27.2407V34.9848H43.6289Z" fill="#DC7000"/>
</g>
<defs>
<clipPath id="clip0_1_2064">
<rect width="30.8475" height="30.8475" fill="white" transform="translate(16.5234 17.625)"/>
</clipPath>
</defs>
</svg>
